<mxfile host="65bd71144e">
    <diagram id="f8bro3hq2V63n0aIHBkh" name="Server Client">
        <mxGraphModel dx="1495" dy="1879" grid="1" gridSize="10" guides="1" tooltips="1" connect="1" arrows="1" fold="1" page="1" pageScale="1" pageWidth="827" pageHeight="1169" math="0" shadow="0">
            <root>
                <mxCell id="0"/>
                <mxCell id="1" parent="0"/>
                <mxCell id="360" value="" style="rounded=0;whiteSpace=wrap;html=1;fillColor=#008a00;fontColor=#ffffff;strokeColor=#005700;opacity=30;" parent="1" vertex="1">
                    <mxGeometry x="840" y="-1120" width="760" height="2180" as="geometry"/>
                </mxCell>
                <mxCell id="359" value="" style="rounded=0;whiteSpace=wrap;html=1;fillColor=#1ba1e2;fontColor=#ffffff;strokeColor=#006EAF;opacity=30;" parent="1" vertex="1">
                    <mxGeometry x="80" y="-1120" width="760" height="2180" as="geometry"/>
                </mxCell>
                <mxCell id="131" style="edgeStyle=none;html=1;entryX=0;entryY=0.5;entryDx=0;entryDy=0;endArrow=block;endFill=1;" parent="1" target="snAStb-6BBQoRBitgBAS-25" edge="1">
                    <mxGeometry relative="1" as="geometry"/>
                </mxCell>
                <mxCell id="361" value="&lt;font style=&quot;font-size: 20px&quot;&gt;Peer 1&lt;/font&gt;" style="text;html=1;strokeColor=none;fillColor=none;align=center;verticalAlign=middle;whiteSpace=wrap;rounded=0;opacity=30;" parent="1" vertex="1">
                    <mxGeometry x="80" y="-1120" width="100" height="50" as="geometry"/>
                </mxCell>
                <mxCell id="362" value="&lt;font style=&quot;font-size: 20px&quot;&gt;Peer 2&lt;/font&gt;" style="text;html=1;strokeColor=none;fillColor=none;align=center;verticalAlign=middle;whiteSpace=wrap;rounded=0;opacity=30;" parent="1" vertex="1">
                    <mxGeometry x="840" y="-1120" width="100" height="50" as="geometry"/>
                </mxCell>
                <mxCell id="363" value="" style="endArrow=none;dashed=1;html=1;fontSize=20;entryX=0;entryY=0.477;entryDx=0;entryDy=0;entryPerimeter=0;strokeWidth=3;fillColor=#e3c800;strokeColor=#B09500;" parent="1" target="359" edge="1">
                    <mxGeometry width="50" height="50" relative="1" as="geometry">
                        <mxPoint x="1600" y="-80" as="sourcePoint"/>
                        <mxPoint x="250" y="-220" as="targetPoint"/>
                    </mxGeometry>
                </mxCell>
                <mxCell id="365" value="&lt;font style=&quot;font-size: 20px&quot;&gt;Gửi tin nhắn&lt;/font&gt;" style="text;html=1;strokeColor=none;fillColor=none;align=center;verticalAlign=middle;whiteSpace=wrap;rounded=0;opacity=30;" parent="1" vertex="1">
                    <mxGeometry x="80" y="-80" width="140" height="50" as="geometry"/>
                </mxCell>
                <mxCell id="263" value="Nhận tín hiệu &quot;#CHAT#&quot;" style="whiteSpace=wrap;html=1;rounded=1;arcSize=22;" parent="1" vertex="1">
                    <mxGeometry x="331.49" y="-680" width="120" height="60" as="geometry"/>
                </mxCell>
                <mxCell id="265" value="" style="rhombus;whiteSpace=wrap;html=1;" parent="1" vertex="1">
                    <mxGeometry x="570.5700000000002" y="-680" width="63.85" height="60" as="geometry"/>
                </mxCell>
                <mxCell id="264" style="edgeStyle=none;html=1;entryX=1;entryY=0.5;entryDx=0;entryDy=0;exitX=0;exitY=0.5;exitDx=0;exitDy=0;" parent="1" source="265" target="263" edge="1">
                    <mxGeometry relative="1" as="geometry"/>
                </mxCell>
                <mxCell id="268" value="Tạo socket kết nối" style="whiteSpace=wrap;html=1;rounded=1;arcSize=22;" parent="1" vertex="1">
                    <mxGeometry x="331.5" y="-540" width="120" height="60" as="geometry"/>
                </mxCell>
                <mxCell id="274" style="edgeStyle=none;html=1;entryX=0.5;entryY=0;entryDx=0;entryDy=0;" parent="1" source="263" target="268" edge="1">
                    <mxGeometry relative="1" as="geometry"/>
                </mxCell>
                <mxCell id="275" style="edgeStyle=none;html=1;entryX=0;entryY=0.5;entryDx=0;entryDy=0;" parent="1" source="268" target="293" edge="1">
                    <mxGeometry relative="1" as="geometry">
                        <mxPoint x="563.49" y="-460" as="targetPoint"/>
                    </mxGeometry>
                </mxCell>
                <mxCell id="279" value="Báo lỗi" style="whiteSpace=wrap;html=1;rounded=1;arcSize=22;" parent="1" vertex="1">
                    <mxGeometry x="542.5" y="-415.63" width="120" height="60" as="geometry"/>
                </mxCell>
                <mxCell id="281" style="edgeStyle=none;html=1;entryX=0.5;entryY=0;entryDx=0;entryDy=0;exitX=0.5;exitY=1;exitDx=0;exitDy=0;" parent="1" source="293" target="279" edge="1">
                    <mxGeometry relative="1" as="geometry">
                        <mxPoint x="490" y="-450" as="targetPoint"/>
                        <Array as="points"/>
                    </mxGeometry>
                </mxCell>
                <mxCell id="293" value="Kết nối&lt;br&gt;thành công?" style="rhombus;whiteSpace=wrap;html=1;" parent="1" vertex="1">
                    <mxGeometry x="553.4200000000001" y="-560" width="98.16" height="100" as="geometry"/>
                </mxCell>
                <mxCell id="294" value="Khởi động lại &lt;br&gt;chờ kết nối ở thread" style="whiteSpace=wrap;html=1;rounded=1;arcSize=22;" parent="1" vertex="1">
                    <mxGeometry x="542.5" y="-310" width="120" height="60" as="geometry"/>
                </mxCell>
                <mxCell id="298" style="edgeStyle=none;html=1;entryX=1;entryY=0.5;entryDx=0;entryDy=0;" parent="1" source="295" target="294" edge="1">
                    <mxGeometry relative="1" as="geometry">
                        <mxPoint x="680" y="-260" as="targetPoint"/>
                    </mxGeometry>
                </mxCell>
                <mxCell id="297" value="Xuất hiện &lt;br&gt;giao diện chat" style="whiteSpace=wrap;html=1;rounded=1;arcSize=22;" parent="1" vertex="1">
                    <mxGeometry x="331.5" y="-415.63" width="120" height="60" as="geometry"/>
                </mxCell>
                <mxCell id="313" style="edgeStyle=none;html=1;entryX=0.5;entryY=1;entryDx=0;entryDy=0;" parent="1" source="312" target="297" edge="1">
                    <mxGeometry relative="1" as="geometry"/>
                </mxCell>
                <mxCell id="312" value="" style="rhombus;whiteSpace=wrap;html=1;" parent="1" vertex="1">
                    <mxGeometry x="359.57000000000016" y="-310" width="63.85" height="60" as="geometry"/>
                </mxCell>
                <mxCell id="319" style="edgeStyle=none;html=1;entryX=1;entryY=0.5;entryDx=0;entryDy=0;" parent="1" source="294" target="312" edge="1">
                    <mxGeometry relative="1" as="geometry"/>
                </mxCell>
                <mxCell id="314" value="Tạo thread Catcher chờ tương tác" style="whiteSpace=wrap;html=1;rounded=1;arcSize=22;" parent="1" vertex="1">
                    <mxGeometry x="331.5" y="-180" width="120" height="60" as="geometry"/>
                </mxCell>
                <mxCell id="315" style="edgeStyle=none;html=1;entryX=0.5;entryY=0;entryDx=0;entryDy=0;" parent="1" source="312" target="314" edge="1">
                    <mxGeometry relative="1" as="geometry"/>
                </mxCell>
                <mxCell id="320" value="Có" style="text;html=1;strokeColor=none;fillColor=none;align=center;verticalAlign=middle;whiteSpace=wrap;rounded=0;" parent="1" vertex="1">
                    <mxGeometry x="639.9999999999998" y="-540" width="41.25" height="30" as="geometry"/>
                </mxCell>
                <mxCell id="321" value="Không" style="text;html=1;strokeColor=none;fillColor=none;align=center;verticalAlign=middle;whiteSpace=wrap;rounded=0;" parent="1" vertex="1">
                    <mxGeometry x="610.3299999999999" y="-464" width="41.25" height="30" as="geometry"/>
                </mxCell>
                <mxCell id="323" value="" style="rhombus;whiteSpace=wrap;html=1;" parent="1" vertex="1">
                    <mxGeometry x="359.57000000000016" y="-50" width="63.85" height="60" as="geometry"/>
                </mxCell>
                <mxCell id="324" style="edgeStyle=none;html=1;entryX=0.5;entryY=0;entryDx=0;entryDy=0;" parent="1" source="314" target="323" edge="1">
                    <mxGeometry relative="1" as="geometry"/>
                </mxCell>
                <mxCell id="326" value="Nhận được tin nhắn có header &quot;#CONTENT#&quot;" style="whiteSpace=wrap;html=1;rounded=1;arcSize=22;" parent="1" vertex="1">
                    <mxGeometry x="331.5" y="80" width="120" height="60" as="geometry"/>
                </mxCell>
                <mxCell id="327" style="edgeStyle=none;html=1;" parent="1" source="323" target="326" edge="1">
                    <mxGeometry relative="1" as="geometry"/>
                </mxCell>
                <mxCell id="329" value="Hiển thị tin nhắn lên màn hình" style="whiteSpace=wrap;html=1;rounded=1;arcSize=22;" parent="1" vertex="1">
                    <mxGeometry x="542.5" y="80" width="120" height="60" as="geometry"/>
                </mxCell>
                <mxCell id="330" style="edgeStyle=none;html=1;entryX=0;entryY=0.5;entryDx=0;entryDy=0;" parent="1" source="326" target="329" edge="1">
                    <mxGeometry relative="1" as="geometry"/>
                </mxCell>
                <mxCell id="334" style="edgeStyle=none;html=1;entryX=0.5;entryY=0;entryDx=0;entryDy=0;" parent="1" source="329" target="373" edge="1">
                    <mxGeometry relative="1" as="geometry"/>
                </mxCell>
                <mxCell id="snAStb-6BBQoRBitgBAS-25" value="" style="ellipse;html=1;shape=endState;fillColor=#000000;strokeColor=#ff0000;" parent="1" vertex="1">
                    <mxGeometry x="376.5" y="960" width="30" height="30" as="geometry"/>
                </mxCell>
                <mxCell id="185" style="edgeStyle=none;html=1;" parent="1" source="snAStb-6BBQoRBitgBAS-50" target="snAStb-6BBQoRBitgBAS-25" edge="1">
                    <mxGeometry relative="1" as="geometry"/>
                </mxCell>
                <mxCell id="snAStb-6BBQoRBitgBAS-50" value="Đăng xuất" style="rounded=1;whiteSpace=wrap;html=1;" parent="1" vertex="1">
                    <mxGeometry x="331.5" y="850" width="120" height="60" as="geometry"/>
                </mxCell>
                <mxCell id="347" style="edgeStyle=none;html=1;entryX=0.5;entryY=0;entryDx=0;entryDy=0;exitX=1.003;exitY=0.501;exitDx=0;exitDy=0;exitPerimeter=0;" parent="1" source="426" target="265" edge="1">
                    <mxGeometry relative="1" as="geometry">
                        <mxPoint x="602.4982394366198" y="-737.5" as="sourcePoint"/>
                    </mxGeometry>
                </mxCell>
                <mxCell id="348" style="edgeStyle=none;html=1;entryX=0;entryY=0.5;entryDx=0;entryDy=0;exitX=0.497;exitY=1.005;exitDx=0;exitDy=0;exitPerimeter=0;" parent="1" source="426" target="snAStb-6BBQoRBitgBAS-50" edge="1">
                    <mxGeometry relative="1" as="geometry">
                        <mxPoint x="330" y="250" as="targetPoint"/>
                        <Array as="points">
                            <mxPoint x="250" y="-769"/>
                            <mxPoint x="250" y="880"/>
                        </Array>
                        <mxPoint x="542.5" y="-768.7925531914893" as="sourcePoint"/>
                    </mxGeometry>
                </mxCell>
                <mxCell id="237" value="Không" style="text;html=1;strokeColor=none;fillColor=none;align=center;verticalAlign=middle;whiteSpace=wrap;rounded=0;" parent="1" vertex="1">
                    <mxGeometry x="961.9199999999998" y="-730" width="41.25" height="30" as="geometry"/>
                </mxCell>
                <mxCell id="261" value="Gửi tín hiệu &quot;#CHAT#&quot;, chờ&lt;br&gt;kết nối socket" style="whiteSpace=wrap;html=1;rounded=1;arcSize=22;" parent="1" vertex="1">
                    <mxGeometry x="1140" y="-680" width="120" height="60" as="geometry"/>
                </mxCell>
                <mxCell id="262" style="edgeStyle=none;html=1;" parent="1" target="261" edge="1">
                    <mxGeometry relative="1" as="geometry">
                        <mxPoint x="1200" y="-740" as="sourcePoint"/>
                    </mxGeometry>
                </mxCell>
                <mxCell id="282" value="Peer&lt;br&gt;phản hồi?" style="rhombus;whiteSpace=wrap;html=1;" parent="1" vertex="1">
                    <mxGeometry x="961.9200000000001" y="-700" width="98.16" height="100" as="geometry"/>
                </mxCell>
                <mxCell id="267" style="edgeStyle=none;html=1;entryX=1;entryY=0.5;entryDx=0;entryDy=0;exitX=0;exitY=0.5;exitDx=0;exitDy=0;" parent="1" source="282" target="265" edge="1">
                    <mxGeometry relative="1" as="geometry">
                        <mxPoint x="860" y="-510" as="sourcePoint"/>
                    </mxGeometry>
                </mxCell>
                <mxCell id="284" style="edgeStyle=none;html=1;entryX=1;entryY=0.5;entryDx=0;entryDy=0;" parent="1" source="261" target="282" edge="1">
                    <mxGeometry relative="1" as="geometry"/>
                </mxCell>
                <mxCell id="286" value="Có" style="text;html=1;strokeColor=none;fillColor=none;align=center;verticalAlign=middle;whiteSpace=wrap;rounded=0;" parent="1" vertex="1">
                    <mxGeometry x="929.9999999999998" y="-680" width="41.25" height="30" as="geometry"/>
                </mxCell>
                <mxCell id="288" style="edgeStyle=none;html=1;entryX=0.5;entryY=1;entryDx=0;entryDy=0;exitX=0.5;exitY=0;exitDx=0;exitDy=0;" parent="1" source="282" edge="1">
                    <mxGeometry relative="1" as="geometry">
                        <mxPoint x="1011" y="-740" as="targetPoint"/>
                    </mxGeometry>
                </mxCell>
                <mxCell id="291" value="Nhận được phản hồi,&lt;br&gt;kết nối socket&lt;br&gt;" style="whiteSpace=wrap;html=1;rounded=1;arcSize=22;" parent="1" vertex="1">
                    <mxGeometry x="1140" y="-540" width="120" height="60" as="geometry"/>
                </mxCell>
                <mxCell id="295" value="" style="rhombus;whiteSpace=wrap;html=1;" parent="1" vertex="1">
                    <mxGeometry x="1168.0700000000002" y="-310" width="63.85" height="60" as="geometry"/>
                </mxCell>
                <mxCell id="296" style="edgeStyle=none;html=1;" parent="1" source="291" target="295" edge="1">
                    <mxGeometry relative="1" as="geometry"/>
                </mxCell>
                <mxCell id="299" value="Xuất hiện &lt;br&gt;giao diện chat" style="whiteSpace=wrap;html=1;rounded=1;arcSize=22;" parent="1" vertex="1">
                    <mxGeometry x="1140" y="-180" width="120" height="60" as="geometry"/>
                </mxCell>
                <mxCell id="300" style="edgeStyle=none;html=1;" parent="1" source="295" target="299" edge="1">
                    <mxGeometry relative="1" as="geometry"/>
                </mxCell>
                <mxCell id="367" style="edgeStyle=none;html=1;entryX=1;entryY=0.5;entryDx=0;entryDy=0;fontSize=20;strokeWidth=1;" parent="1" source="304" target="366" edge="1">
                    <mxGeometry relative="1" as="geometry"/>
                </mxCell>
                <mxCell id="304" value="Gửi tin nhắn" style="whiteSpace=wrap;html=1;rounded=1;arcSize=22;" parent="1" vertex="1">
                    <mxGeometry x="1347.75" y="-50" width="120" height="60" as="geometry"/>
                </mxCell>
                <mxCell id="305" style="edgeStyle=none;html=1;entryX=0.5;entryY=0;entryDx=0;entryDy=0;exitX=1;exitY=0.5;exitDx=0;exitDy=0;" parent="1" source="299" target="304" edge="1">
                    <mxGeometry relative="1" as="geometry">
                        <Array as="points">
                            <mxPoint x="1408" y="-150"/>
                        </Array>
                    </mxGeometry>
                </mxCell>
                <mxCell id="317" value="Tạo thread Catcher nhận tương tác" style="whiteSpace=wrap;html=1;rounded=1;arcSize=22;" parent="1" vertex="1">
                    <mxGeometry x="1347.75" y="-310" width="120" height="60" as="geometry"/>
                </mxCell>
                <mxCell id="318" style="edgeStyle=none;html=1;entryX=0;entryY=0.5;entryDx=0;entryDy=0;" parent="1" source="295" target="317" edge="1">
                    <mxGeometry relative="1" as="geometry"/>
                </mxCell>
                <mxCell id="331" value="Hiển thị tin nhắn lên màn hình" style="whiteSpace=wrap;html=1;rounded=1;arcSize=22;" parent="1" vertex="1">
                    <mxGeometry x="1140" y="80" width="120" height="60" as="geometry"/>
                </mxCell>
                <mxCell id="332" style="edgeStyle=none;html=1;entryX=0.5;entryY=0;entryDx=0;entryDy=0;exitX=0.5;exitY=1;exitDx=0;exitDy=0;" parent="1" source="366" target="331" edge="1">
                    <mxGeometry relative="1" as="geometry"/>
                </mxCell>
                <mxCell id="336" style="edgeStyle=none;html=1;entryX=0.5;entryY=0;entryDx=0;entryDy=0;" parent="1" source="331" target="335" edge="1">
                    <mxGeometry relative="1" as="geometry"/>
                </mxCell>
                <mxCell id="227" value="" style="ellipse;html=1;shape=endState;fillColor=#000000;strokeColor=#ff0000;" parent="1" vertex="1">
                    <mxGeometry x="1186.01" y="960" width="30" height="30" as="geometry"/>
                </mxCell>
                <mxCell id="235" style="edgeStyle=none;html=1;" parent="1" source="236" target="227" edge="1">
                    <mxGeometry relative="1" as="geometry"/>
                </mxCell>
                <mxCell id="236" value="Đăng xuất" style="rounded=1;whiteSpace=wrap;html=1;" parent="1" vertex="1">
                    <mxGeometry x="1140" y="850" width="120" height="60" as="geometry"/>
                </mxCell>
                <mxCell id="351" style="edgeStyle=none;html=1;entryX=1;entryY=0.5;entryDx=0;entryDy=0;exitX=0.497;exitY=-0.006;exitDx=0;exitDy=0;exitPerimeter=0;" parent="1" source="432" target="236" edge="1">
                    <mxGeometry relative="1" as="geometry">
                        <Array as="points">
                            <mxPoint x="1540" y="-770"/>
                            <mxPoint x="1540" y="-170"/>
                            <mxPoint x="1540" y="880"/>
                            <mxPoint x="1408" y="880"/>
                        </Array>
                        <mxPoint x="1467.75" y="-770" as="sourcePoint"/>
                    </mxGeometry>
                </mxCell>
                <mxCell id="292" style="edgeStyle=none;html=1;entryX=0;entryY=0.5;entryDx=0;entryDy=0;exitX=1;exitY=0.5;exitDx=0;exitDy=0;" parent="1" source="293" target="291" edge="1">
                    <mxGeometry relative="1" as="geometry"/>
                </mxCell>
                <mxCell id="325" style="edgeStyle=none;html=1;entryX=1;entryY=0.5;entryDx=0;entryDy=0;exitX=0;exitY=0.5;exitDx=0;exitDy=0;" parent="1" source="366" target="323" edge="1">
                    <mxGeometry relative="1" as="geometry">
                        <mxPoint x="680" y="-20" as="targetPoint"/>
                    </mxGeometry>
                </mxCell>
                <mxCell id="366" value="" style="rhombus;whiteSpace=wrap;html=1;" parent="1" vertex="1">
                    <mxGeometry x="1168.0700000000002" y="-50" width="63.85" height="60" as="geometry"/>
                </mxCell>
                <mxCell id="370" style="edgeStyle=none;html=1;entryX=1;entryY=0.5;entryDx=0;entryDy=0;fontSize=20;strokeWidth=1;exitX=0;exitY=0.5;exitDx=0;exitDy=0;" parent="1" source="373" target="333" edge="1">
                    <mxGeometry relative="1" as="geometry">
                        <mxPoint x="542.5" y="250" as="sourcePoint"/>
                    </mxGeometry>
                </mxCell>
                <mxCell id="372" style="edgeStyle=none;html=1;entryX=0.5;entryY=0;entryDx=0;entryDy=0;fontSize=20;strokeWidth=1;" parent="1" source="333" target="371" edge="1">
                    <mxGeometry relative="1" as="geometry"/>
                </mxCell>
                <mxCell id="333" value="Gửi tin nhắn" style="whiteSpace=wrap;html=1;rounded=1;arcSize=22;" parent="1" vertex="1">
                    <mxGeometry x="331.49" y="220" width="120" height="60" as="geometry"/>
                </mxCell>
                <mxCell id="341" value="Hiển thị tin nhắn lên màn hình" style="whiteSpace=wrap;html=1;rounded=1;arcSize=22;" parent="1" vertex="1">
                    <mxGeometry x="330" y="520" width="120" height="60" as="geometry"/>
                </mxCell>
                <mxCell id="342" style="edgeStyle=none;html=1;entryX=0.5;entryY=0;entryDx=0;entryDy=0;exitX=0.5;exitY=1;exitDx=0;exitDy=0;" parent="1" source="371" target="341" edge="1">
                    <mxGeometry relative="1" as="geometry"/>
                </mxCell>
                <mxCell id="335" value="" style="rhombus;whiteSpace=wrap;html=1;" parent="1" vertex="1">
                    <mxGeometry x="1169.0800000000002" y="350" width="63.85" height="60" as="geometry"/>
                </mxCell>
                <mxCell id="340" value="Nhận được tin nhắn có header &quot;#CONTENT#&quot;" style="whiteSpace=wrap;html=1;rounded=1;arcSize=22;" parent="1" vertex="1">
                    <mxGeometry x="1138.5" y="520" width="120" height="60" as="geometry"/>
                </mxCell>
                <mxCell id="343" style="edgeStyle=none;html=1;" parent="1" source="335" target="340" edge="1">
                    <mxGeometry relative="1" as="geometry"/>
                </mxCell>
                <mxCell id="377" style="edgeStyle=none;html=1;entryX=1;entryY=0.5;entryDx=0;entryDy=0;fontSize=20;strokeWidth=1;" parent="1" source="344" target="375" edge="1">
                    <mxGeometry relative="1" as="geometry"/>
                </mxCell>
                <mxCell id="344" value="Hiển thị tin nhắn lên màn hình" style="whiteSpace=wrap;html=1;rounded=1;arcSize=22;" parent="1" vertex="1">
                    <mxGeometry x="1139.5100000000002" y="650" width="120" height="60" as="geometry"/>
                </mxCell>
                <mxCell id="345" style="edgeStyle=none;html=1;entryX=0.5;entryY=0;entryDx=0;entryDy=0;" parent="1" source="340" target="344" edge="1">
                    <mxGeometry relative="1" as="geometry"/>
                </mxCell>
                <mxCell id="337" style="edgeStyle=none;html=1;entryX=0;entryY=0.5;entryDx=0;entryDy=0;exitX=1;exitY=0.5;exitDx=0;exitDy=0;" parent="1" source="371" target="335" edge="1">
                    <mxGeometry relative="1" as="geometry"/>
                </mxCell>
                <mxCell id="371" value="" style="rhombus;whiteSpace=wrap;html=1;" parent="1" vertex="1">
                    <mxGeometry x="359.5700000000002" y="350" width="63.85" height="60" as="geometry"/>
                </mxCell>
                <mxCell id="373" value="Khởi động lại &lt;br&gt;chờ kết nối ở thread" style="whiteSpace=wrap;html=1;rounded=1;arcSize=22;" parent="1" vertex="1">
                    <mxGeometry x="542.5" y="220" width="120" height="60" as="geometry"/>
                </mxCell>
                <mxCell id="375" value="Khởi động lại &lt;br&gt;chờ kết nối ở thread" style="whiteSpace=wrap;html=1;rounded=1;arcSize=22;" parent="1" vertex="1">
                    <mxGeometry x="922.54" y="650" width="120" height="60" as="geometry"/>
                </mxCell>
                <mxCell id="418" style="edgeStyle=none;html=1;entryX=0;entryY=0.5;entryDx=0;entryDy=0;exitX=1;exitY=0.5;exitDx=0;exitDy=0;" parent="1" source="428" target="419" edge="1">
                    <mxGeometry relative="1" as="geometry">
                        <mxPoint x="600.4950000000003" y="-798.75" as="targetPoint"/>
                    </mxGeometry>
                </mxCell>
                <mxCell id="438" style="edgeStyle=none;html=1;entryX=-0.008;entryY=0.498;entryDx=0;entryDy=0;entryPerimeter=0;" parent="1" source="419" target="426" edge="1">
                    <mxGeometry relative="1" as="geometry"/>
                </mxCell>
                <mxCell id="419" value="Xem giao diện&lt;br&gt;tương tác" style="rounded=1;whiteSpace=wrap;html=1;" parent="1" vertex="1">
                    <mxGeometry x="542.4999999999999" y="-926.75" width="120" height="62.5" as="geometry"/>
                </mxCell>
                <mxCell id="420" style="edgeStyle=none;html=1;entryX=0.068;entryY=0.49;entryDx=0;entryDy=0;entryPerimeter=0;" parent="1" source="421" target="432" edge="1">
                    <mxGeometry relative="1" as="geometry"/>
                </mxCell>
                <mxCell id="421" value="Xem giao diện&lt;br&gt;tương tác" style="rounded=1;whiteSpace=wrap;html=1;" parent="1" vertex="1">
                    <mxGeometry x="1347.75" y="-926.75" width="120" height="62.5" as="geometry"/>
                </mxCell>
                <mxCell id="422" style="edgeStyle=none;html=1;entryX=0;entryY=0.5;entryDx=0;entryDy=0;" parent="1" source="436" target="421" edge="1">
                    <mxGeometry relative="1" as="geometry"/>
                </mxCell>
                <mxCell id="423" value="Chọn bạn" style="whiteSpace=wrap;html=1;rounded=1;arcSize=22;" parent="1" vertex="1">
                    <mxGeometry x="1140" y="-800" width="120" height="60" as="geometry"/>
                </mxCell>
                <mxCell id="424" style="edgeStyle=none;html=1;entryX=1;entryY=0.5;entryDx=0;entryDy=0;exitX=0.504;exitY=1.002;exitDx=0;exitDy=0;exitPerimeter=0;" parent="1" source="432" target="423" edge="1">
                    <mxGeometry relative="1" as="geometry"/>
                </mxCell>
                <mxCell id="425" value="Báo lỗi" style="whiteSpace=wrap;html=1;rounded=1;arcSize=22;" parent="1" vertex="1">
                    <mxGeometry x="951" y="-800" width="120" height="60" as="geometry"/>
                </mxCell>
                <mxCell id="426" value="" style="html=1;points=[];perimeter=orthogonalPerimeter;rotation=90;" parent="1" vertex="1">
                    <mxGeometry x="596.25" y="-810" width="12.5" height="80" as="geometry"/>
                </mxCell>
                <mxCell id="427" value="" style="ellipse;html=1;shape=startState;fillColor=#000000;strokeColor=#ff0000;" parent="1" vertex="1">
                    <mxGeometry x="184.49" y="-1000" width="30" height="30" as="geometry"/>
                </mxCell>
                <mxCell id="428" value="Server tạo thread&lt;br&gt;Listener chờ kết nối" style="rounded=1;whiteSpace=wrap;html=1;" parent="1" vertex="1">
                    <mxGeometry x="352.4999999999999" y="-928.3800000000001" width="120" height="62.5" as="geometry"/>
                </mxCell>
                <mxCell id="429" value="" style="edgeStyle=orthogonalEdgeStyle;html=1;verticalAlign=bottom;endArrow=open;endSize=8;strokeColor=#ff0000;entryX=0.5;entryY=0;entryDx=0;entryDy=0;exitX=0.499;exitY=0.84;exitDx=0;exitDy=0;exitPerimeter=0;" parent="1" source="427" target="431" edge="1">
                    <mxGeometry relative="1" as="geometry">
                        <mxPoint x="83.49000000000001" y="-850" as="targetPoint"/>
                    </mxGeometry>
                </mxCell>
                <mxCell id="430" style="edgeStyle=none;html=1;entryX=0;entryY=0.5;entryDx=0;entryDy=0;exitX=1;exitY=0.5;exitDx=0;exitDy=0;" parent="1" source="431" target="428" edge="1">
                    <mxGeometry relative="1" as="geometry"/>
                </mxCell>
                <mxCell id="431" value="Đăng nhập" style="rounded=1;whiteSpace=wrap;html=1;" parent="1" vertex="1">
                    <mxGeometry x="140" y="-930" width="118.99" height="65.75" as="geometry"/>
                </mxCell>
                <mxCell id="432" value="" style="html=1;points=[];perimeter=orthogonalPerimeter;rotation=90;" parent="1" vertex="1">
                    <mxGeometry x="1401.5000000000002" y="-810" width="12.5" height="80" as="geometry"/>
                </mxCell>
                <mxCell id="433" value="" style="ellipse;html=1;shape=startState;fillColor=#000000;strokeColor=#ff0000;" parent="1" vertex="1">
                    <mxGeometry x="994.5" y="-1000" width="30" height="30" as="geometry"/>
                </mxCell>
                <mxCell id="434" value="" style="edgeStyle=orthogonalEdgeStyle;html=1;verticalAlign=bottom;endArrow=open;endSize=8;strokeColor=#ff0000;entryX=0.5;entryY=0;entryDx=0;entryDy=0;exitX=0.499;exitY=0.84;exitDx=0;exitDy=0;exitPerimeter=0;" parent="1" source="433" target="435" edge="1">
                    <mxGeometry relative="1" as="geometry">
                        <mxPoint x="1191.99" y="-780" as="targetPoint"/>
                    </mxGeometry>
                </mxCell>
                <mxCell id="435" value="Đăng nhập" style="rounded=1;whiteSpace=wrap;html=1;" parent="1" vertex="1">
                    <mxGeometry x="950" y="-930" width="118.99" height="65.75" as="geometry"/>
                </mxCell>
                <mxCell id="436" value="Server tạo thread&lt;br&gt;Listener chờ kết nối" style="rounded=1;whiteSpace=wrap;html=1;" parent="1" vertex="1">
                    <mxGeometry x="1156.74" y="-928.3799999999999" width="120" height="62.5" as="geometry"/>
                </mxCell>
                <mxCell id="437" style="edgeStyle=none;html=1;exitX=1;exitY=0.5;exitDx=0;exitDy=0;entryX=0;entryY=0.5;entryDx=0;entryDy=0;" parent="1" source="435" target="436" edge="1">
                    <mxGeometry relative="1" as="geometry">
                        <mxPoint x="1128.99" y="-940" as="targetPoint"/>
                    </mxGeometry>
                </mxCell>
            </root>
        </mxGraphModel>
    </diagram>
</mxfile>